<?xml version="1.0" encoding="iso-8859-1"?>
<!-- Uploaded to: SVG Repo, www.svgrepo.com, Generator: SVG Repo Mixer Tools -->
<svg fill="#000000" height="800px" width="800px" version="1.1" id="Layer_1" xmlns="http://www.w3.org/2000/svg" xmlns:xlink="http://www.w3.org/1999/xlink" 
	 viewBox="0 0 512 512" xml:space="preserve">
<g>
	<g>
		<path d="M511.949,285.41c-0.017-0.273-0.077-0.546-0.119-0.819c-0.094-0.631-0.247-1.229-0.478-1.809
			c-0.068-0.196-0.068-0.401-0.154-0.589c-10.419-22.374-49.374-30.396-98.697-40.559c-23.313-4.796-49.007-10.121-74.163-17.51
			l-30.097,30.02c-1.655,1.664-3.84,2.492-6.025,2.492c-2.185,0-4.369-0.836-6.042-2.509c-3.328-3.328-3.319-8.738,0.017-12.066
			l23.825-23.765c-4.565-1.57-9.071-3.234-13.534-4.983l-27.392,27.324c-1.664,1.664-3.849,2.492-6.025,2.492
			c-2.185,0-4.378-0.828-6.042-2.5c-3.328-3.337-3.319-8.747,0.009-12.075l22.545-22.494c-4.181-1.971-8.252-4.062-12.254-6.255
			l-28.45,28.39c-1.664,1.664-3.849,2.492-6.033,2.492s-4.369-0.836-6.042-2.509c-3.328-3.337-3.319-8.738,0.017-12.066
			l25.421-25.361c-6.255-4.198-12.169-8.738-17.647-13.687c-2.611-2.347-6.4-2.867-9.54-1.297
			c-0.333,0.162-8.294,4.156-18.057,10.155c-39.663,24.371-88.363,29.833-133.581,14.976c-14.327-4.702-29.764-10.351-45.884-16.777
			c-0.068-0.034-0.128-0.051-0.196-0.077c-0.034-0.017-0.068-0.026-0.102-0.043c-0.973-0.384-1.988-0.563-2.995-0.58
			c-0.034,0-0.068-0.026-0.102-0.026c-9.412,0-17.067-7.654-17.067-17.067c0-4.71-3.823-8.533-8.533-8.533S0,161.617,0,166.327
			c0,14.08,8.567,26.18,20.762,31.394c-9.728,17.92-26.547,55.765-18.108,91.034C1.033,290.308,0,292.459,0,294.882v33.579
			c0,4.71,3.823,8.533,8.533,8.533c24.883,0,151.646,0.384,203.58,7.893c23.612,3.422,81.877,9.318,141.815,9.318
			c61.79,0,125.363-6.263,154.624-27.972c2.167-1.613,3.447-4.156,3.447-6.852v-33.587C512,285.666,511.949,285.547,511.949,285.41z
			 M494.933,314.876C441.899,348.079,272,336.311,214.554,328c-48.563-7.031-159.701-7.953-197.487-8.055v-16.623
			c0.486,0,0.947,0,1.442-0.009c0.759,0,1.562-0.009,2.347-0.009c24.448-0.068,62.541,0.674,119.799,3.695
			c0.188,0.009,0.358,0.017,0.546,0.026c4.412,0.23,8.994,0.486,13.636,0.751c1.109,0.06,2.176,0.111,3.294,0.179
			c3.78,0.213,7.731,0.452,11.665,0.683c1.971,0.12,3.874,0.23,5.888,0.35c3.149,0.188,6.451,0.401,9.694,0.606
			c2.884,0.179,5.692,0.35,8.653,0.546c6.084,0.393,12.314,0.802,18.722,1.237c5.734,0.384,11.349,0.742,16.87,1.084
			c2.662,0.154,5.239,0.29,7.859,0.444c2.816,0.162,5.675,0.333,8.439,0.478c2.927,0.154,5.769,0.282,8.636,0.418
			c2.321,0.12,4.676,0.239,6.955,0.341c3.029,0.137,5.973,0.247,8.926,0.367c2.031,0.085,4.096,0.171,6.093,0.247
			c2.995,0.111,5.914,0.205,8.832,0.299c1.869,0.06,3.763,0.119,5.598,0.171c2.901,0.085,5.726,0.154,8.559,0.222
			c1.766,0.043,3.558,0.085,5.299,0.119c2.773,0.06,5.478,0.094,8.175,0.137c1.724,0.026,3.456,0.051,5.154,0.077
			c2.637,0.026,5.214,0.043,7.782,0.06c1.655,0.009,3.319,0.017,4.949,0.026c0.93,0,1.894,0.008,2.807,0.008
			c1.51,0,2.935-0.017,4.412-0.017c1.766-0.009,3.524-0.017,5.248-0.034c2.295-0.017,4.557-0.034,6.784-0.068
			c1.673-0.017,3.328-0.043,4.966-0.077c2.193-0.034,4.361-0.077,6.502-0.128c1.621-0.034,3.217-0.077,4.804-0.12
			c2.065-0.06,4.113-0.119,6.118-0.188c1.553-0.051,3.081-0.111,4.599-0.171c1.963-0.077,3.908-0.145,5.811-0.23
			c1.485-0.068,2.927-0.137,4.378-0.213c1.86-0.094,3.721-0.179,5.53-0.282c1.434-0.077,2.816-0.171,4.207-0.247
			c1.732-0.111,3.482-0.213,5.171-0.324c1.357-0.094,2.671-0.188,4.002-0.29c1.655-0.12,3.328-0.23,4.932-0.358
			c1.212-0.094,2.355-0.196,3.541-0.299c4.224-0.358,8.32-0.734,12.194-1.126c0.111-0.017,0.23-0.026,0.35-0.034
			c1.408-0.154,2.756-0.307,4.122-0.461c1.143-0.128,2.321-0.247,3.43-0.375c1.271-0.154,2.475-0.307,3.703-0.461
			c1.135-0.137,2.287-0.282,3.388-0.427c1.161-0.145,2.27-0.307,3.388-0.461c1.118-0.154,2.244-0.307,3.319-0.469
			c1.041-0.145,2.048-0.299,3.055-0.461c1.067-0.162,2.133-0.324,3.166-0.486c0.998-0.162,1.954-0.324,2.918-0.486
			c0.981-0.162,1.946-0.333,2.893-0.495c0.922-0.162,1.826-0.333,2.714-0.495c0.913-0.171,1.818-0.341,2.697-0.503
			c0.862-0.171,1.707-0.341,2.543-0.503c0.845-0.171,1.673-0.341,2.492-0.512c0.785-0.171,1.562-0.333,2.321-0.503
			c0.794-0.171,1.57-0.341,2.338-0.521c0.717-0.162,1.442-0.333,2.133-0.495c0.742-0.171,1.442-0.35,2.15-0.521
			c0.657-0.162,1.314-0.324,1.946-0.486c0.683-0.179,1.331-0.35,1.98-0.521c0.597-0.162,1.212-0.324,1.783-0.478
			c0.649-0.188,1.254-0.358,1.877-0.538c0.503-0.145,1.024-0.29,1.51-0.435c0.64-0.188,1.229-0.375,1.835-0.563
			c0.427-0.137,0.87-0.265,1.28-0.401c0.913-0.29,1.784-0.58,2.611-0.862c0.034-0.008,0.068-0.017,0.102-0.034V314.876z"/>
	</g>
</g>
</svg>